<svg xmlns="http://www.w3.org/2000/svg">
  <symbol viewBox="0 0 40 42" id="logo">
    <path d="M11.5 4.96078C15.1108 4.96078 18.0392 7.88923 18.0392 11.5C18.0392 15.1108 15.1108 18.0392 11.5 18.0392C7.88923 18.0392 4.96078 15.1108 4.96078 11.5C4.96078 7.88923 7.88923 4.96078 11.5 4.96078ZM11.5 0C9.95086 0 8.44271 0.304558 7.02241 0.904889C5.6519 1.48472 4.42195 2.31347 3.36771 3.36771C2.31347 4.42195 1.48473 5.6519 0.904897 7.02241C0.304566 8.4427 0 9.95085 0 11.5C0 13.0491 0.304566 14.5573 0.904897 15.9776C1.48473 17.3481 2.31347 18.5781 3.36771 19.6323C4.42195 20.6865 5.6519 21.5153 7.02241 22.0951C8.44271 22.6954 9.95086 23 11.5 23C13.0492 23 14.5573 22.6954 15.9776 22.0951C17.3481 21.5153 18.5781 20.6865 19.6323 19.6323C20.6865 18.5781 21.5153 17.3481 22.0951 15.9776C22.6954 14.5573 23 13.0491 23 11.5C23 9.95085 22.6954 8.4427 22.0951 7.02241C21.5153 5.6519 20.6865 4.42195 19.6323 3.36771C18.5781 2.31347 17.3481 1.48472 15.9776 0.904889C14.5573 0.304558 13.0492 0 11.5 0Z" fill="#0166FF"/>
    <path d="M8.88685 31L6 26.9907C12.5824 22.5225 16.4682 18.0773 18.2253 13L23 14.5587C20.8832 20.678 16.3968 25.9025 8.88685 31Z" fill="#0166FF"/>
    <path d="M39.0971 26.0224C38.5147 24.6519 37.6824 23.422 36.6235 22.3677C35.5647 21.3135 34.3294 20.4847 32.9529 19.9049C31.5265 19.3046 30.0118 19 28.4559 19C26.9 19 25.3853 19.3046 23.9588 19.9049C22.5824 20.4847 21.3471 21.3135 20.2882 22.3677C20.1412 22.5141 20 22.6635 19.8588 22.8187L23.6765 26.0136C24.8735 24.7515 26.5706 23.9608 28.4529 23.9608C32.0794 23.9608 35.0206 26.8892 35.0206 30.5C35.0206 34.1108 32.0794 37.0392 28.4529 37.0392C24.8265 37.0392 22.1353 34.3538 21.9 30.9539L17 32.0169C17.1353 33.0331 17.4059 34.0258 17.8088 34.9776C18.3912 36.3481 19.2235 37.578 20.2824 38.6323C21.3412 39.6865 22.5765 40.5153 23.9529 41.0951C25.3794 41.6954 26.8941 42 28.45 42C30.0059 42 31.5206 41.6954 32.9471 41.0951C34.3235 40.5153 35.5588 39.6865 36.6176 38.6323C37.6765 37.578 38.5088 36.3481 39.0912 34.9776C39.6941 33.5573 40 32.0491 40 30.5C40 28.9509 39.6941 27.4427 39.0912 26.0224H39.0971Z" fill="#0166FF"/>
    <path d="M35.6825 12.1367C33.4579 12.7623 31.265 12.8204 28.7889 12.3229L27.1854 12L20 22.8113L23.7704 26L29.4708 17.426C32.0884 17.7606 34.5153 17.5802 37 16.8849L35.6854 12.1367H35.6825Z" fill="#0166FF"/>
    <path d="M11.3154 18L11.2502 17.9503C9.94673 16.8763 8.98045 15.4599 8.45055 13.8416C8.15302 12.9285 8 11.9716 8 11C8 10.0284 8.14735 9.0949 8.43921 8.19064C8.96344 6.56355 9.92973 5.13838 11.2332 4.06145L11.2927 4H11.3891C13.5143 4.0556 15.4497 5.10326 16.7022 6.8796C17.5523 8.08236 18 9.5046 18 10.9971C18 12.4895 17.5466 13.9323 16.6852 15.1409C15.4327 16.8997 13.5058 17.9415 11.3976 17.9941H11.3154V18ZM11.4684 4.49164C10.2641 5.50125 9.37149 6.8357 8.88127 8.34866C8.6064 9.20025 8.46472 10.0957 8.46472 11.0029C8.46472 11.9101 8.6064 12.8261 8.88977 13.6894C9.37999 15.1906 10.2698 16.5134 11.4656 17.5171C13.3925 17.4411 15.155 16.4783 16.3055 14.86C17.1074 13.7362 17.5296 12.4018 17.5296 11.0029C17.5296 9.6041 17.1131 8.28721 16.3225 7.16931C15.1748 5.5393 13.4066 4.56773 11.4656 4.49164H11.4684Z" fill="#0166FF"/>
    <path d="M11.2147 18C8.97971 18 6.91062 17.0197 5.53222 15.3106C4.53085 14.0698 4 12.5803 4 11C4 9.41973 4.5218 7.94774 5.51413 6.70987C6.89252 4.9862 8.97066 4 11.2147 4C11.275 4 11.3384 4 11.3987 4H11.4982L11.5585 4.06145C12.946 5.13545 13.9745 6.56355 14.5325 8.19064C14.8432 9.09197 15 10.0372 15 10.9971C15 11.9569 14.8401 12.9227 14.5204 13.8386C13.9594 15.454 12.9309 16.8733 11.5465 17.9415L11.4771 17.9941H11.3896C11.3353 17.9941 11.275 17.9941 11.2117 17.9941L11.2147 18ZM11.2147 4.48286C9.12449 4.48286 7.1881 5.40176 5.90623 7.00836C4.98629 8.15844 4.49767 9.53972 4.49767 11.0029C4.49767 12.4661 4.9893 13.862 5.9213 15.018C7.20318 16.61 9.13354 17.523 11.2147 17.523C11.2449 17.523 11.275 17.523 11.3022 17.523C12.575 16.5222 13.5251 15.1965 14.0499 13.6923C14.3515 12.829 14.5023 11.9248 14.5023 11.0059C14.5023 10.087 14.3545 9.20318 14.059 8.35159C13.5372 6.8357 12.584 5.50125 11.3022 4.48871C11.272 4.48871 11.2418 4.48871 11.2147 4.48871V4.48286Z" fill="#0166FF"/>
    <path d="M10.6065 9C9.66183 9 8.72834 8.84624 7.8369 8.54169C6.88099 8.21644 5.98954 7.72265 5.18501 7.08102L5 6.93318L5.14296 6.73802C6.42405 4.99645 8.3555 4 10.4411 4C10.4972 4 10.5561 4 10.6121 4C12.7118 4.05618 14.6264 5.11472 15.8626 6.90952L16 7.10763L15.8094 7.24956C15.0637 7.81135 14.2452 8.24305 13.3761 8.54169C12.4847 8.84624 11.554 9 10.6065 9ZM5.65596 6.83856C6.36799 7.3767 7.1501 7.79361 7.97986 8.07451C9.67303 8.65405 11.5428 8.65405 13.2332 8.07451C13.9817 7.82022 14.6909 7.45653 15.3468 6.99231C14.1919 5.44293 12.4763 4.53223 10.6009 4.48196C10.5477 4.48196 10.4944 4.48196 10.4411 4.48196C8.57696 4.48196 6.84455 5.33649 5.65596 6.83856Z" fill="#0166FF"/>
    <path d="M10.441 18C8.35846 18 6.43051 17.0028 5.14615 15.2645L5 15.068L5.1883 14.9192C5.99489 14.2762 6.8858 13.7851 7.84134 13.4577C9.62315 12.8474 11.5904 12.8474 13.3751 13.4577C14.2435 13.7523 15.0613 14.1869 15.8089 14.7495L16 14.8924L15.8595 15.0948C14.6173 16.8838 12.7062 17.9434 10.6124 17.997C10.5534 17.997 10.4972 17.997 10.4382 17.997L10.441 18ZM5.66045 15.1603C6.85488 16.6575 8.58329 17.5118 10.441 17.5118C10.4944 17.5118 10.5478 17.5118 10.6012 17.5118C12.4701 17.4612 14.1845 16.5534 15.3424 15.0085C14.6875 14.5471 13.9793 14.184 13.2317 13.928C11.5399 13.3505 9.67374 13.3505 7.98186 13.928C7.15279 14.2107 6.37149 14.6275 5.66045 15.1633V15.1603Z" fill="#0166FF"/>
    <path d="M18 11H4V11.4829H18V11Z" fill="#0166FF"/>
  </symbol>
</svg>
